<svg xmlns="http://www.w3.org/2000/svg" xmlns:xlink="http://www.w3.org/1999/xlink" xml:space="preserve" viewBox="0 0 72 72"><symbol id="c" viewBox="-17.5 -17.5 35 35"><path d="M0 15.72c8.67 0 15.72-7.05 15.72-15.72S8.67-15.72 0-15.72-15.72-8.67-15.72 0-8.67 15.72 0 15.72m0 1.78c-9.65 0-17.5-7.85-17.5-17.5S-9.65-17.5 0-17.5 17.5-9.65 17.5 0 9.65 17.5 0 17.5"/><radialGradient id="a" cx="-30.75" cy="23.062" r="58.682" gradientUnits="userSpaceOnUse"><stop offset=".37" style="stop-color:#cd1d50"/><stop offset=".854" style="stop-color:#a71333"/></radialGradient><circle r="15.72" style="fill:url(#a)"/></symbol><symbol id="b" viewBox="-17.5 -17.5 35 35"><path d="M0-15.72c-8.67 0-15.72 7.05-15.72 15.72S-8.67 15.72 0 15.72 15.72 8.67 15.72 0 8.67-15.72 0-15.72m0-1.78c9.65 0 17.5 7.85 17.5 17.5S9.65 17.5 0 17.5-17.5 9.65-17.5 0-9.65-17.5 0-17.5"/><circle r="15.72" style="fill:#e8e8e8"/><path d="M14.61 2.19c0-9.08-7.39-16.47-16.47-16.47-2.25 0-4.39.46-6.35 1.28 2.31-1.37 4.99-2.16 7.86-2.16 8.55 0 15.5 6.95 15.5 15.5 0 1.74-.3 3.42-.84 4.98.19-1.02.3-2.06.3-3.13" style="opacity:.33;fill:#696969"/></symbol><symbol id="d" viewBox="-36 -36 72 72"><path d="M-36-36h72v72h-72z" style="opacity:0;fill:#696969"/><use xlink:href="#b" width="35" height="35" x="-17.5" y="-17.5" style="overflow:visible" transform="translate(-14.247 11.055)scale(.8844)"/><use xlink:href="#c" width="35" height="35" x="-17.5" y="-17.5" style="overflow:visible" transform="translate(15.132 19.9)scale(.8844)"/><use xlink:href="#b" width="35" height="35" x="-17.5" y="-17.5" style="overflow:visible" transform="translate(-15.132 -19.9)scale(.8844)"/><use xlink:href="#c" width="35" height="35" x="-17.5" y="-17.5" style="overflow:visible" transform="translate(14.247 -11.055)scale(.8844)"/></symbol><use xlink:href="#d" width="72" height="72" x="-36" y="-36" style="overflow:visible" transform="matrix(1 0 0 -1 36 36)"/></svg>