<svg xmlns="http://www.w3.org/2000/svg" xmlns:xlink="http://www.w3.org/1999/xlink" xml:space="preserve" viewBox="0 0 72 72"><switch><foreignObject width="1" height="1" x="0" y="0" requiredExtensions="http://ns.adobe.com/AdobeIllustrator/10.0/"/><g><symbol id="a" viewBox="-36 -36 72 72"><path d="M36-36h-72v72h72z" style="opacity:0;fill:#696969"/><path d="M-1.3 22.4c1.9 0 3.5-1.6 3.5-3.5v-8.5h22.1c1.9 0 3.5-1.6 3.5-3.5V-7c0-1.9-1.6-3.5-3.5-3.5H2.1V-19c0-1.9-1.6-3.5-3.5-3.5-.8 0-1.5.3-2.1.8L-25.7-4.1c-1.2 1-2 2.5-2 4.1s.7 3.1 2 4.1l22.3 17.6c.5.4 1.3.7 2.1.7"/><path d="M-1.3-21.4c-.5 0-1.1.2-1.5.5L-25.1-3.3c-2.1 1.7-2.1 4.9 0 6.5l22.3 17.6c.5.4 1 .5 1.5.5 1.3 0 2.5-1 2.5-2.5V9.5h23.1c1.4 0 2.5-1.1 2.5-2.5V-7c0-1.4-1.1-2.5-2.5-2.5H1.1V-19c0-1.4-1.2-2.4-2.4-2.4m0-2c2.5 0 4.5 2 4.5 4.5v7.5h21.1c2.5 0 4.5 2 4.5 4.5V7c0 2.5-2 4.5-4.5 4.5H3.1V19c0 2.5-2 4.5-4.5 4.5-1 0-2-.3-2.8-1L-26.4 4.8c-1.5-1.2-2.3-2.9-2.3-4.8s.9-3.7 2.3-4.8l22.3-17.6c.8-.7 1.8-1 2.8-1"/><path d="M-1.9 6.5h23.8c1 0 1.8-.8 1.8-1.8v-9.4c0-1-.8-1.8-1.8-1.8H-1.9v-9c0-1-1.1-1.5-1.9-.9L-23.3-.9c-.4.3-.4.7-.4.9s.1.6.4.9l19.5 15.4c.8.6 1.9.1 1.9-.9z"/><path d="M-3 17.1c.2 0 .5-.1.7-.2.6-.3.9-.9.9-1.5V7h23.3c1.3 0 2.3-1 2.3-2.3v-9.4c0-1.3-1-2.3-2.3-2.3H-1.4v-8.5c0-.6-.4-1.2-.9-1.5-.6-.3-1.3-.2-1.8.2L-23.6-1.3c-.6.4-.6 1-.6 1.3s.1.9.6 1.3l19.5 15.4c.3.3.7.4 1.1.4M21.9-6c.7 0 1.3.6 1.3 1.3v9.4c0 .7-.6 1.3-1.3 1.3H-2.4v9.5c0 .3-.1.5-.4.6-.2.1-.5.1-.7-.1L-22.9.5c-.2-.2-.3-.4-.3-.5s0-.4.3-.5l19.5-15.4c.2-.2.5-.2.7-.1s.4.3.4.6V-6z" style="fill:#fff"/></symbol><use xlink:href="#a" width="72" height="72" x="-36" y="-36" style="overflow:visible" transform="matrix(1 0 0 -1 36 36)"/></g></switch></svg>